<svg width="120" height="32" viewBox="0 0 120 32" fill="none" xmlns="http://www.w3.org/2000/svg">
  <!-- G Icon -->
  <path fill-rule="evenodd" clip-rule="evenodd" d="M16 2C8.268 2 2 8.268 2 16C2 23.732 8.268 30 16 30C23.732 30 30 23.732 30 16V14H16V18H25.5C24.5 22.5 20.6 26 16 26C10.477 26 6 21.523 6 16C6 10.477 10.477 6 16 6C19.5 6 22.6 7.8 24.5 10.5L28 8C25.3 4.3 21 2 16 2Z" fill="#F8FAFC"/>
  <!-- Glyph Text -->
  <text x="38" y="22" font-family="Inter, -apple-system, BlinkMacSystemFont, 'Segoe UI', Roboto, sans-serif" font-size="18" font-weight="600" fill="#F8FAFC">Glyph</text>
</svg>
